<svg version="1.1" id="Layer_1" xmlns="http://www.w3.org/2000/svg" xmlns:xlink="http://www.w3.org/1999/xlink" x="0px" y="0px"
	 width="100%" viewBox="0 0 200 200" enable-background="new 0 0 200 200" xml:space="preserve">
<path fill="#000000" opacity="1.000000" stroke="none" 
	d="
M124.000000,201.000000 
	C82.692200,201.000000 41.884399,201.000000 1.038300,201.000000 
	C1.038300,134.400574 1.038300,67.801117 1.038300,1.100832 
	C67.557625,1.100832 134.115448,1.100832 200.836639,1.100832 
	C200.836639,67.666344 200.836639,134.333130 200.836639,201.000000 
	C175.468063,201.000000 149.984039,201.000000 124.000000,201.000000 
M50.119671,100.994812 
	C42.185741,100.994812 34.251812,100.994812 26.196995,100.994812 
	C26.196995,126.178429 26.196995,150.889633 26.196995,175.676712 
	C59.548218,175.676712 92.701454,175.676712 126.079544,175.676712 
	C126.079544,167.213425 126.079544,159.072418 126.006210,151.000076 
	C126.006210,151.000076 125.937393,151.073273 126.880379,151.005173 
	C134.816711,151.005173 142.753052,151.005173 151.071487,151.005173 
	C151.071487,159.537094 151.071487,167.608673 151.071487,175.774246 
	C159.529602,175.774246 167.594879,175.774246 175.633759,175.774246 
	C175.633759,142.384338 175.633759,109.221527 175.633759,76.319786 
	C133.895142,76.319786 92.523048,76.319786 50.920509,76.319786 
	C50.920509,84.781990 50.920509,92.925224 50.993851,100.999794 
	C50.993851,100.999794 51.062656,100.926590 50.119671,100.994812 
M51.000000,43.440720 
	C51.000000,45.877647 51.000000,48.314579 51.000000,50.731415 
	C59.607708,50.731415 67.678795,50.731415 75.729935,50.731415 
	C75.729935,42.389294 75.729935,34.318146 75.729935,26.271542 
	C67.386261,26.271542 59.315067,26.271542 51.000000,26.271542 
	C51.000000,31.845661 51.000000,37.151714 51.000000,43.440720 
M126.056877,50.253635 
	C134.241333,50.253635 142.425781,50.253635 150.792358,50.253635 
	C150.792358,42.519165 150.792358,34.448437 150.792358,26.210457 
	C142.513351,26.210457 134.442612,26.210457 126.003929,26.210457 
	C126.003929,34.038677 126.003929,41.662430 126.056877,50.253635 
z"/>
<path fill="#FFFFFF" opacity="1.000000" stroke="none" 
	d="
M126.079544,150.931396 
	C126.079544,159.072418 126.079544,167.213425 126.079544,175.676712 
	C92.701454,175.676712 59.548218,175.676712 26.196995,175.676712 
	C26.196995,150.889633 26.196995,126.178429 26.196995,100.994812 
	C34.251812,100.994812 42.185741,100.994812 50.562084,101.433144 
	C51.004498,118.121063 51.004498,134.370651 51.004498,150.632751 
	C59.593494,150.632751 67.771004,150.632751 75.667427,150.632751 
	C75.667427,133.883240 75.667427,117.501717 75.667427,101.068466 
	C67.196899,101.068466 59.058704,101.068466 50.920509,101.068466 
	C50.920509,92.925224 50.920509,84.781990 50.920509,76.319786 
	C92.523048,76.319786 133.895142,76.319786 175.633759,76.319786 
	C175.633759,109.221527 175.633759,142.384338 175.633759,175.774246 
	C167.594879,175.774246 159.529602,175.774246 151.071487,175.774246 
	C151.071487,167.608673 151.071487,159.537094 151.071487,151.005173 
	C142.753052,151.005173 134.816711,151.005173 126.437943,150.566803 
	C125.995499,142.204056 125.995499,134.279709 125.995499,126.367287 
	C117.393394,126.367287 109.221817,126.367287 101.342377,126.367287 
	C101.342377,134.793564 101.342377,142.850967 101.342377,150.931396 
	C109.816254,150.931396 117.947899,150.931396 126.079544,150.931396 
z"/>
<path fill="#FFFFFF" opacity="1.000000" stroke="none" 
	d="
M51.000000,42.949242 
	C51.000000,37.151714 51.000000,31.845661 51.000000,26.271542 
	C59.315067,26.271542 67.386261,26.271542 75.729935,26.271542 
	C75.729935,34.318146 75.729935,42.389294 75.729935,50.731415 
	C67.678795,50.731415 59.607708,50.731415 51.000000,50.731415 
	C51.000000,48.314579 51.000000,45.877647 51.000000,42.949242 
z"/>
<path fill="#FFFFFF" opacity="1.000000" stroke="none" 
	d="
M126.030403,49.769913 
	C126.003929,41.662430 126.003929,34.038677 126.003929,26.210457 
	C134.442612,26.210457 142.513351,26.210457 150.792358,26.210457 
	C150.792358,34.448437 150.792358,42.519165 150.792358,50.253635 
	C142.425781,50.253635 134.241333,50.253635 126.030403,49.769913 
z"/>
<path fill="#000000" opacity="1.000000" stroke="none" 
	d="
M50.957180,101.034134 
	C59.058704,101.068466 67.196899,101.068466 75.667427,101.068466 
	C75.667427,117.501717 75.667427,133.883240 75.667427,150.632751 
	C67.771004,150.632751 59.593494,150.632751 51.004498,150.632751 
	C51.004498,134.370651 51.004498,118.121063 51.033577,101.399033 
	C51.062656,100.926590 50.993851,100.999794 50.957180,101.034134 
z"/>
<path fill="#000000" opacity="1.000000" stroke="none" 
	d="
M126.042877,150.965729 
	C117.947899,150.931396 109.816254,150.931396 101.342377,150.931396 
	C101.342377,142.850967 101.342377,134.793564 101.342377,126.367287 
	C109.221817,126.367287 117.393394,126.367287 125.995499,126.367287 
	C125.995499,134.279709 125.995499,142.204056 125.966446,150.600845 
	C125.937393,151.073273 126.006210,151.000076 126.042877,150.965729 
z"/>
</svg>