<svg version="1.1" id="Layer_1" xmlns="http://www.w3.org/2000/svg" xmlns:xlink="http://www.w3.org/1999/xlink" x="0px" y="0px"
	 width="100%" viewBox="0 0 200 200" enable-background="new 0 0 200 200" xml:space="preserve">
<path fill="#000000" opacity="1.000000" stroke="none" 
	d="
M124.000000,201.000000 
	C82.692200,201.000000 41.884399,201.000000 1.038300,201.000000 
	C1.038300,134.400574 1.038300,67.801117 1.038300,1.100832 
	C67.557625,1.100832 134.115448,1.100832 200.836639,1.100832 
	C200.836639,67.666344 200.836639,134.333130 200.836639,201.000000 
	C175.468063,201.000000 149.984039,201.000000 124.000000,201.000000 
M150.994644,100.125397 
	C150.994644,92.182312 150.994644,84.239227 150.994644,75.903946 
	C142.441162,75.903946 134.362427,75.903946 125.896133,75.903946 
	C125.896133,59.098934 125.896133,42.689972 125.896133,26.256248 
	C117.421165,26.256248 109.348991,26.256248 100.880867,26.256248 
	C100.880867,51.250134 100.880867,75.990662 100.880867,100.736282 
	C92.405807,100.736282 84.333199,100.736282 75.865601,100.736282 
	C75.865601,84.067894 75.865601,67.658951 75.865601,51.271523 
	C67.389503,51.271523 59.316982,51.271523 50.849640,51.271523 
	C50.849640,59.615219 50.849640,67.693146 50.849640,76.158508 
	C42.376747,76.158508 34.298092,76.158508 26.283401,76.158508 
	C26.283401,92.966278 26.283401,109.371712 26.283401,126.173439 
	C51.305027,126.173439 76.045532,126.173439 100.709137,126.173439 
	C100.709137,134.649918 100.709137,142.723114 100.709137,151.189056 
	C92.344986,151.189056 84.265266,151.189056 76.299019,151.189056 
	C76.299019,159.666534 76.299019,167.739929 76.299019,175.697937 
	C109.670265,175.697937 142.741684,175.697937 175.693848,175.697937 
	C175.693848,167.318970 175.693848,159.245224 175.693848,150.780396 
	C167.313263,150.780396 159.233917,150.780396 150.924103,150.780396 
	C150.924103,142.230713 150.924103,134.080872 151.869400,125.995110 
	C159.788300,125.995110 167.707214,125.995110 175.650574,125.995110 
	C175.650574,117.417274 175.650574,109.251389 175.650574,101.069023 
	C167.175537,101.069023 159.049820,101.069023 150.994644,100.125397 
M151.000000,37.509167 
	C151.000000,41.941586 151.000000,46.374004 151.000000,50.709015 
	C159.654831,50.709015 167.725983,50.709015 175.708252,50.709015 
	C175.708252,42.343807 175.708252,34.272713 175.708252,26.292547 
	C167.342239,26.292547 159.271133,26.292547 151.000000,26.292547 
	C151.000000,29.895029 151.000000,33.206696 151.000000,37.509167 
z"/>
<path fill="#FFFFFF" opacity="1.000000" stroke="none" 
	d="
M150.924103,125.931015 
	C150.924103,134.080872 150.924103,142.230713 150.924103,150.780396 
	C159.233917,150.780396 167.313263,150.780396 175.693848,150.780396 
	C175.693848,159.245224 175.693848,167.318970 175.693848,175.697937 
	C142.741684,175.697937 109.670265,175.697937 76.299019,175.697937 
	C76.299019,167.739929 76.299019,159.666534 76.299019,151.189056 
	C84.265266,151.189056 92.344986,151.189056 100.709137,151.189056 
	C100.709137,142.723114 100.709137,134.649918 100.709137,126.173439 
	C76.045532,126.173439 51.305027,126.173439 26.283401,126.173439 
	C26.283401,109.371712 26.283401,92.966278 26.283401,76.158508 
	C34.298092,76.158508 42.376747,76.158508 50.849640,76.158508 
	C50.849640,67.693146 50.849640,59.615219 50.849640,51.271523 
	C59.316982,51.271523 67.389503,51.271523 75.865601,51.271523 
	C75.865601,67.658951 75.865601,84.067894 75.865601,100.736282 
	C84.333199,100.736282 92.405807,100.736282 100.880867,100.736282 
	C100.880867,75.990662 100.880867,51.250134 100.880867,26.256248 
	C109.348991,26.256248 117.421165,26.256248 125.896133,26.256248 
	C125.896133,42.689972 125.896133,59.098934 125.896133,75.903946 
	C134.362427,75.903946 142.441162,75.903946 150.994644,75.903946 
	C150.994644,84.239227 150.994644,92.182312 150.996094,100.562744 
	C150.997559,101.000092 151.069946,100.930061 150.597870,100.962555 
	C142.208160,100.995049 134.290527,100.995049 126.348618,100.995049 
	C126.348618,109.582771 126.348618,117.747795 126.348618,126.069939 
	C134.821259,126.069939 142.945602,126.069939 151.033737,126.034943 
	C150.997528,125.999939 150.924103,125.931015 150.924103,125.931015 
z"/>
<path fill="#FFFFFF" opacity="1.000000" stroke="none" 
	d="
M151.000000,37.013763 
	C151.000000,33.206696 151.000000,29.895029 151.000000,26.292547 
	C159.271133,26.292547 167.342239,26.292547 175.708252,26.292547 
	C175.708252,34.272713 175.708252,42.343807 175.708252,50.709015 
	C167.725983,50.709015 159.654831,50.709015 151.000000,50.709015 
	C151.000000,46.374004 151.000000,41.941586 151.000000,37.013763 
z"/>
<path fill="#FFFFFF" opacity="1.000000" stroke="none" 
	d="
M150.960846,101.034561 
	C159.049820,101.069023 167.175537,101.069023 175.650574,101.069023 
	C175.650574,109.251389 175.650574,117.417274 175.650574,125.995110 
	C167.707214,125.995110 159.788300,125.995110 151.396759,125.963058 
	C150.924103,125.931015 150.997528,125.999939 151.001236,125.562836 
	C151.026611,117.060501 151.048279,108.995285 151.069946,100.930061 
	C151.069946,100.930061 150.997559,101.000092 150.960846,101.034561 
z"/>
<path fill="#000000" opacity="1.000000" stroke="none" 
	d="
M150.597870,100.962555 
	C151.048279,108.995285 151.026611,117.060501 151.037445,125.597832 
	C142.945602,126.069939 134.821259,126.069939 126.348618,126.069939 
	C126.348618,117.747795 126.348618,109.582771 126.348618,100.995049 
	C134.290527,100.995049 142.208160,100.995049 150.597870,100.962555 
z"/>
</svg>