<svg version="1.1" id="Layer_1" xmlns="http://www.w3.org/2000/svg" xmlns:xlink="http://www.w3.org/1999/xlink" x="0px" y="0px"
	 width="100%" viewBox="0 0 200 200" enable-background="new 0 0 200 200" xml:space="preserve">
<path fill="#000000" opacity="1.000000" stroke="none" 
	d="
M141.000000,201.000000 
	C94.000000,201.000000 47.500004,201.000000 1.000006,201.000000 
	C1.000004,134.333344 1.000004,67.666679 1.000002,1.000015 
	C67.666656,1.000010 134.333313,1.000010 200.999969,1.000005 
	C200.999985,67.666649 200.999985,134.333298 201.000000,200.999969 
	C181.166672,201.000000 161.333328,201.000000 141.000000,201.000000 
M75.125122,101.005623 
	C67.192741,101.005623 59.260365,101.005623 50.951263,101.005623 
	C50.951263,92.484146 50.951263,84.416481 50.951263,76.204819 
	C42.504837,76.204819 34.443943,76.204819 26.352604,76.204819 
	C26.352604,92.913445 26.352604,109.414879 26.352604,125.676056 
	C43.091389,125.676056 59.476570,125.676056 75.926590,125.676056 
	C75.926590,117.214073 75.926590,109.075714 76.871475,100.995499 
	C84.795845,100.995499 92.720222,100.995499 100.632751,100.995499 
	C100.632751,92.393440 100.632751,84.221848 100.632751,76.342346 
	C92.206497,76.342346 84.149086,76.342346 76.068466,76.342346 
	C76.068466,84.816208 76.068466,92.947861 75.125122,101.005623 
M176.000000,125.500000 
	C176.000000,117.403160 176.000000,109.306328 176.000000,101.286339 
	C167.355042,101.286339 159.283966,101.286339 150.823196,101.286339 
	C150.823196,109.643547 150.823196,117.720940 150.823196,126.178558 
	C142.354797,126.178558 134.277557,126.178558 126.285378,126.178558 
	C126.285378,142.978943 126.285378,159.380142 126.285378,175.713745 
	C134.645020,175.713745 142.716064,175.713745 151.176636,175.713745 
	C151.176636,167.356613 151.176636,159.279236 151.176636,150.821594 
	C159.645203,150.821594 167.722595,150.821594 176.000000,150.821594 
	C176.000000,142.450195 176.000000,134.475098 176.000000,125.500000 
M115.478424,51.000000 
	C118.916885,51.000000 122.355339,51.000000 125.718063,51.000000 
	C125.718063,42.365265 125.718063,34.293701 125.718063,26.280935 
	C109.032379,26.280935 92.630104,26.280935 76.282669,26.280935 
	C76.282669,34.636246 76.282669,42.707817 76.282669,51.000000 
	C89.203659,51.000000 101.843285,51.000000 115.478424,51.000000 
M48.319584,151.000259 
	C40.902905,151.000259 33.486225,151.000259 26.354527,151.000259 
	C26.354527,159.781082 26.354527,167.856949 26.354527,175.642426 
	C34.787251,175.642426 42.863274,175.642426 50.999893,175.642426 
	C50.999893,168.288971 51.074539,161.291290 50.923229,154.298508 
	C50.899220,153.189026 49.857594,152.101562 48.319584,151.000259 
z"/>
<path fill="#FFFFFF" opacity="1.000000" stroke="none" 
	d="
M176.000000,126.000000 
	C176.000000,134.475098 176.000000,142.450195 176.000000,150.821594 
	C167.722595,150.821594 159.645203,150.821594 151.176636,150.821594 
	C151.176636,159.279236 151.176636,167.356613 151.176636,175.713745 
	C142.716064,175.713745 134.645020,175.713745 126.285378,175.713745 
	C126.285378,159.380142 126.285378,142.978943 126.285378,126.178558 
	C134.277557,126.178558 142.354797,126.178558 150.823196,126.178558 
	C150.823196,117.720940 150.823196,109.643547 150.823196,101.286339 
	C159.283966,101.286339 167.355042,101.286339 176.000000,101.286339 
	C176.000000,109.306328 176.000000,117.403160 176.000000,126.000000 
z"/>
<path fill="#FFFFFF" opacity="1.000000" stroke="none" 
	d="
M75.926590,100.937355 
	C75.926590,109.075714 75.926590,117.214073 75.926590,125.676056 
	C59.476570,125.676056 43.091389,125.676056 26.352604,125.676056 
	C26.352604,109.414879 26.352604,92.913445 26.352604,76.204819 
	C34.443943,76.204819 42.504837,76.204819 50.951263,76.204819 
	C50.951263,84.416481 50.951263,92.484146 50.951263,101.005623 
	C59.260365,101.005623 67.192741,101.005623 75.562454,101.005890 
	C75.999794,101.006165 75.926590,100.937355 75.926590,100.937355 
z"/>
<path fill="#FFFFFF" opacity="1.000000" stroke="none" 
	d="
M114.980667,51.000000 
	C101.843285,51.000000 89.203659,51.000000 76.282669,51.000000 
	C76.282669,42.707817 76.282669,34.636246 76.282669,26.280935 
	C92.630104,26.280935 109.032379,26.280935 125.718063,26.280935 
	C125.718063,34.293701 125.718063,42.365265 125.718063,51.000000 
	C122.355339,51.000000 118.916885,51.000000 114.980667,51.000000 
z"/>
<path fill="#FFFFFF" opacity="1.000000" stroke="none" 
	d="
M76.034134,101.042831 
	C76.068466,92.947861 76.068466,84.816208 76.068466,76.342346 
	C84.149086,76.342346 92.206497,76.342346 100.632751,76.342346 
	C100.632751,84.221848 100.632751,92.393440 100.632751,100.995499 
	C92.720222,100.995499 84.795845,100.995499 76.399033,100.966431 
	C75.926590,100.937355 75.999794,101.006165 76.034134,101.042831 
z"/>
<path fill="#FFFFFF" opacity="1.000000" stroke="none" 
	d="
M48.803013,151.002090 
	C49.857594,152.101562 50.899220,153.189026 50.923229,154.298508 
	C51.074539,161.291290 50.999893,168.288971 50.999893,175.642426 
	C42.863274,175.642426 34.787251,175.642426 26.354527,175.642426 
	C26.354527,167.856949 26.354527,159.781082 26.354527,151.000259 
	C33.486225,151.000259 40.902905,151.000259 48.803013,151.002090 
z"/>
</svg>